# xmcd
# 
# Track frame offsets:
#     150
#     12914
#     33834
#     52104
#     70451
#     88703
#     109117
#     125837
#     144048
#     161442
#     185785
#     197312
# 
# Disc length: 2829
# 
# Revision: 2
# Processed by: cddbd v1.5.2PL0 Copyright (c) Steve Scherf et al.
# Submitted via: fre:ac v1.0.27
# 
DISCID=a20b0b0c
DTITLE=Various Artist - Rec 62 Willy Bleyen
DYEAR=0
DGENRE=Top 40
TTITLE0=Hooverphonic - The Night Before
TTITLE1=Andre Van Duin - De Laatste Ronde
TTITLE2=Jürgen Marcus - Ein Festival Der Liebe (Re Recording)
TTITLE3=Juergen Marcus - Ein Festival Der Liebe
TTITLE4=Nina and Mike - Fahrende Musikanten
TTITLE5=Mark Ronson and Bruno Mars - Uptown Funk
TTITLE6=Doe Maar - Pa
TTITLE7=Doe Maar - Een Nacht Alleen
TTITLE8=Doe Maar - Doris Day
TTITLE9=Doe Maar - Is Dit Alles
TTITLE10=Andre Van Duin - Als De Zon Schijnt
TTITLE11=Leopold 3 - Zomernacht
EXTD=OTS
EXTT0=
EXTT1=
EXTT2=
EXTT3=
EXTT4=
EXTT5=
EXTT6=
EXTT7=
EXTT8=
EXTT9=
EXTT10=
EXTT11=
PLAYORDER=
